<svg xmlns="http://www.w3.org/2000/svg"  viewBox="0 0 64 64" width="256px" height="256px"><linearGradient id="TWE4mAeofZdsntxWka5L~a" x1="36.5" x2="36.5" y1="7.894" y2="16.231" gradientUnits="userSpaceOnUse"><stop offset="0" stop-color="#6dc7ff"/><stop offset="1" stop-color="#e6abff"/></linearGradient><path fill="url(#TWE4mAeofZdsntxWka5L~a)" d="M32,17l9,0c0-4.971-4.029-9-9-9L32,17z"/><g><linearGradient id="TWE4mAeofZdsntxWka5L~b" x1="47.5" x2="47.5" y1="4.447" y2="57.316" gradientUnits="userSpaceOnUse"><stop offset="0" stop-color="#1a6dff"/><stop offset="1" stop-color="#c822ff"/></linearGradient><path fill="url(#TWE4mAeofZdsntxWka5L~b)" d="M43,42v2c4.962,0,9-4.037,9-9h-2C50,38.859,46.86,42,43,42z"/><linearGradient id="TWE4mAeofZdsntxWka5L~c" x1="45.5" x2="45.5" y1="4.447" y2="57.316" gradientUnits="userSpaceOnUse"><stop offset="0" stop-color="#1a6dff"/><stop offset="1" stop-color="#c822ff"/></linearGradient><path fill="url(#TWE4mAeofZdsntxWka5L~c)" d="M48,35h-2c0,1.654-1.346,3-3,3v2C45.757,40,48,37.757,48,35z"/><linearGradient id="TWE4mAeofZdsntxWka5L~d" x1="32" x2="32" y1="4.447" y2="57.316" gradientUnits="userSpaceOnUse"><stop offset="0" stop-color="#1a6dff"/><stop offset="1" stop-color="#c822ff"/></linearGradient><path fill="url(#TWE4mAeofZdsntxWka5L~d)" d="M43.976,22.036C44.649,20.443,45,18.729,45,17c0-7.168-5.832-13-13-13S19,9.832,19,17 c0,1.729,0.351,3.443,1.024,5.036C13.31,22.537,8,28.16,8,35c0,7.168,5.832,13,13,13c1.752,0,3.443-0.361,5-1.012v5.112 c-2.279,0.465-4,2.484-4,4.899c0,0.553,0.448,1,1,1h18c0.552,0,1-0.447,1-1c0-2.415-1.721-4.435-4-4.899v-5.112 C39.557,47.639,41.248,48,43,48c7.168,0,13-5.832,13-13C56,28.16,50.69,22.537,43.976,22.036z M36,46v2h-2v2h2v2h-4v2h5 c1.304,0,2.416,0.836,2.829,2H24.171c0.413-1.164,1.525-2,2.829-2c0.552,0,1-0.447,1-1v-7c0-0.025-0.012-0.045-0.014-0.069 c1.596-1.021,2.982-2.369,4.014-4.008c1.032,1.639,2.418,2.987,4.014,4.008C36.012,45.955,36,45.975,36,46z M46.104,45.562 c-2.142,0.611-4.284,0.562-6.228-0.015C35.726,44.313,33,40.33,33,36h-2c0,4.33-2.726,8.313-6.876,9.546 c-1.944,0.578-4.085,0.626-6.228,0.015c-4.056-1.156-7.125-4.665-7.763-8.834C9.087,29.9,14.367,24,21,24 c0.167,0,0.333,0.009,0.582,0.022L21.595,24H25v-2h-2.762C21.44,20.448,21,18.737,21,17c0-6.065,4.935-11,11-11s11,4.935,11,11 c0,1.737-0.44,3.448-1.238,5H39v2h3.491l0.012,0.018C42.667,24.009,42.833,24,43,24c6.633,0,11.913,5.9,10.867,12.728 C53.229,40.896,50.16,44.406,46.104,45.562z"/><linearGradient id="TWE4mAeofZdsntxWka5L~e" x1="16.5" x2="16.5" y1="4.447" y2="57.316" gradientUnits="userSpaceOnUse"><stop offset="0" stop-color="#1a6dff"/><stop offset="1" stop-color="#c822ff"/></linearGradient><path fill="url(#TWE4mAeofZdsntxWka5L~e)" d="M14,35h-2c0,4.963,4.038,9,9,9v-2C17.14,42,14,38.859,14,35z"/><linearGradient id="TWE4mAeofZdsntxWka5L~f" x1="18.5" x2="18.5" y1="4.447" y2="57.316" gradientUnits="userSpaceOnUse"><stop offset="0" stop-color="#1a6dff"/><stop offset="1" stop-color="#c822ff"/></linearGradient><path fill="url(#TWE4mAeofZdsntxWka5L~f)" d="M18,35h-2c0,2.757,2.243,5,5,5v-2C19.346,38,18,36.654,18,35z"/></g></svg>